<svg xmlns="http://www.w3.org/2000/svg" viewBox="0 0 256 256" role="img" aria-label="placeholder avatar">
  <rect width="256" height="256" fill="#0a0e0b"/>
  <g fill="none" stroke="#1d2820" stroke-width="1">
    <path d="M0 16 H256 M0 32 H256 M0 48 H256 M0 64 H256 M0 80 H256 M0 96 H256 M0 112 H256 M0 128 H256 M0 144 H256 M0 160 H256 M0 176 H256 M0 192 H256 M0 208 H256 M0 224 H256 M0 240 H256"/>
  </g>
  <!-- pixel head -->
  <g fill="#7dff8a">
    <rect x="96"  y="64"  width="64" height="64"/>
  </g>
  <g fill="#0a0e0b">
    <rect x="112" y="84"  width="8"  height="8"/>
    <rect x="136" y="84"  width="8"  height="8"/>
    <rect x="116" y="108" width="24" height="6"/>
  </g>
  <!-- pixel shoulders -->
  <g fill="#46c463">
    <rect x="64"  y="144" width="128" height="80"/>
    <rect x="96"  y="128" width="64"  height="16"/>
  </g>
  <g fill="#0a0e0b">
    <rect x="120" y="160" width="16" height="64"/>
  </g>
  <!-- corner pixels -->
  <g fill="#7dff8a">
    <rect x="0"   y="0"   width="6" height="6"/>
    <rect x="250" y="0"   width="6" height="6"/>
    <rect x="0"   y="250" width="6" height="6"/>
    <rect x="250" y="250" width="6" height="6"/>
  </g>
  <!-- caption -->
  <g font-family="JetBrains Mono, monospace" font-size="10" fill="#8b9286" letter-spacing="1">
    <text x="12" y="246">// placeholder</text>
  </g>
</svg>
