<svg xmlns="http://www.w3.org/2000/svg" viewBox="0 0 1200 630" width="1200" height="630" role="img" aria-label="jonathan_abraham.os — building production-grade systems for over 5 years">
  <defs>
    <linearGradient id="bg" x1="0" x2="0" y1="0" y2="1">
      <stop offset="0%" stop-color="#070a08"/>
      <stop offset="100%" stop-color="#0b0e0c"/>
    </linearGradient>
    <pattern id="grid" width="32" height="32" patternUnits="userSpaceOnUse">
      <path d="M32 0H0V32" fill="none" stroke="#152017" stroke-width="1"/>
    </pattern>
  </defs>
  <rect width="1200" height="630" fill="url(#bg)"/>
  <rect width="1200" height="630" fill="url(#grid)" opacity="0.55"/>

  <g transform="translate(80,68)" font-family="ui-monospace, Menlo, Consolas, 'JetBrains Mono', monospace" fill="#cfe9d3">
    <!-- top-left eyebrow -->
    <g fill="#7dff8a">
      <rect x="0" y="0" width="13" height="13"/>
      <rect x="20" y="0" width="13" height="13"/>
      <rect x="40" y="0" width="13" height="13"/>
    </g>
    <text x="68" y="12" font-size="20" fill="#9aa39a" letter-spacing="3">OPERATOR://NOTES</text>

    <!-- top-right "open to work" badge (the call-to-action) -->
    <g transform="translate(820,-6)">
      <rect x="0" y="0" width="220" height="28" fill="none" stroke="#7dff8a" stroke-width="1"/>
      <rect x="10" y="11" width="6" height="6" fill="#7dff8a">
        <animate attributeName="opacity" values="1;0.3;1" dur="2.4s" repeatCount="indefinite"/>
      </rect>
      <text x="22" y="19" font-size="13" fill="#7dff8a" letter-spacing="2">OPEN TO SELECT WORK</text>
    </g>

    <!-- prompt -->
    <text x="0" y="86" font-size="22" fill="#7dff8a" letter-spacing="1">&gt; ./jonathan_abraham</text>

    <!-- headline -->
    <text x="-4" y="208" font-size="92" font-weight="700" fill="#e8efe9" letter-spacing="-2">jonathan_abraham<tspan fill="#7dff8a">.os</tspan></text>

    <!-- subline -->
    <text x="0" y="266" font-size="28" fill="#9aa39a">building production-grade systems for over 5 years</text>

    <!-- bullets -->
    <g transform="translate(0,338)" font-size="22" fill="#cfe9d3">
      <rect x="0" y="-12" width="7" height="7" fill="#7dff8a"/>
      <text x="22" y="0">voice agents · intake automation · backend infrastructure</text>

      <rect x="0" y="40" width="7" height="7" fill="#6ee7ff"/>
      <text x="22" y="52">founder · brokerloop · melbourne · contracts au + us</text>

      <rect x="0" y="92" width="7" height="7" fill="#f5b860"/>
      <text x="22" y="104">writing on production-grade AI systems</text>
    </g>

    <!-- bottom rule -->
    <line x1="0" y1="500" x2="1040" y2="500" stroke="#1a2b1d" stroke-width="1" stroke-dasharray="2,6"/>

    <!-- bottom status row + url CTA -->
    <g transform="translate(0,524)" font-size="14" fill="#5a6d5d">
      <text x="0" y="0" letter-spacing="2">REGIONS AU + US · STATUS open_to_select_work · BUILD a3f8c</text>
      <text x="1040" y="0" text-anchor="end" letter-spacing="2" fill="#7dff8a">jabrahamtech.com →</text>
    </g>
  </g>
</svg>
