<svg xmlns="http://www.w3.org/2000/svg" viewBox="0 0 1200 630" width="1200" height="630" role="img" aria-label="jonathan_abraham.os — shipping production AI for over 2 years">
  <defs>
    <linearGradient id="bg" x1="0" x2="0" y1="0" y2="1">
      <stop offset="0%" stop-color="#070a08"/>
      <stop offset="100%" stop-color="#0b0e0c"/>
    </linearGradient>
    <pattern id="grid" width="32" height="32" patternUnits="userSpaceOnUse">
      <path d="M32 0H0V32" fill="none" stroke="#152017" stroke-width="1"/>
    </pattern>
  </defs>
  <rect width="1200" height="630" fill="url(#bg)"/>
  <rect width="1200" height="630" fill="url(#grid)" opacity="0.55"/>

  <g transform="translate(80,72)" font-family="ui-monospace, Menlo, Consolas, 'JetBrains Mono', monospace" fill="#cfe9d3">
    <g fill="#7dff8a">
      <rect x="0" y="0" width="13" height="13"/>
      <rect x="20" y="0" width="13" height="13"/>
      <rect x="40" y="0" width="13" height="13"/>
    </g>
    <text x="68" y="12" font-size="20" fill="#9aa39a" letter-spacing="3">OPERATOR://NOTES</text>

    <text x="0" y="92" font-size="22" fill="#7dff8a" letter-spacing="1">&gt; ./jonathan_abraham</text>

    <text x="-4" y="220" font-size="92" font-weight="700" fill="#e8efe9" letter-spacing="-2">jonathan_abraham<tspan fill="#7dff8a">.os</tspan></text>

    <text x="0" y="288" font-size="28" fill="#9aa39a">shipping production AI for over 2 years</text>

    <g transform="translate(0,386)" font-size="22" fill="#cfe9d3">
      <rect x="0" y="-13" width="7" height="7" fill="#7dff8a"/>
      <text x="22" y="-1">voice agents · intake automation · backend infrastructure</text>

      <rect x="0" y="35" width="7" height="7" fill="#6ee7ff"/>
      <text x="22" y="47">founder · brokerloop · melbourne</text>

      <rect x="0" y="83" width="7" height="7" fill="#f5b860"/>
      <text x="22" y="95">writing on production-grade AI systems</text>
    </g>

    <line x1="0" y1="510" x2="1040" y2="510" stroke="#1a2b1d" stroke-width="1" stroke-dasharray="2,6"/>
    <g transform="translate(0,510)" font-family="ui-monospace, Menlo, Consolas, 'JetBrains Mono', monospace" font-size="14" fill="#5a6d5d">
      <text x="0" y="32" letter-spacing="2">MEL · AEST · status: open_to_select_work · build a3f8c</text>
      <text x="1040" y="32" text-anchor="end" letter-spacing="2" fill="#7dff8a">▸ jonathanabraham.dev</text>
    </g>
  </g>
</svg>
